<?xml version="1.0" encoding="UTF-8" standalone="no"?>
<svg
    viewBox="0 0 88 129.08501"
    version="1.1"
    id="svg5"
    width="88"
    height="129.08501"
    xmlns:xlink="http://www.w3.org/1999/xlink"
    xmlns="http://www.w3.org/2000/svg"
    xmlns:svg="http://www.w3.org/2000/svg">
    <defs
        id="defs2">
        <linearGradient
            id="a"
            x1="2.7451704"
            x2="44.230392"
            y1="0.27803376"
            y2="0.27803376"
            gradientTransform="matrix(1.2931802,0,0,0.77328741,-1,-0.215)"
            gradientUnits="userSpaceOnUse">
            <stop
                offset="0"
                stop-color="#22b225"
                id="stop1" />
            <stop
                offset="1"
                stop-color="#29fc2e"
                id="stop2" />
        </linearGradient>
        <style
            id="style2">
            @media (prefers-color-scheme:dark){#t{fill:#fff}}
        </style>
        <path
            id="b"
            d="M 1,85.459 C 1,83.742 2.707,68.466 17.907,68.466 27.905,67.749 35.673,75.635 45.371,75.635 69.579,73.821 66.323,41.342 45.119,41.342 39.819,41.328 34.94,43.562 31.19,47.296 L 6.738,71.747 C 2.68,75.792 1,80.972 1,85.459" />
    </defs>
    <path
        fill="url(#a)"
        d="M 36.4,39.93 C 20.18,38.2 3.84,25.94 2.55,0 27.72,0 41.18,14.9 42.48,38.51 47.24,10.19 69.55,13.51 69.55,13.51 70.61,29.56 57.43,39.29 42.48,40.1 38.28,31.25 13.12,9.54 13.12,9.54 a 0.07,0.07 0 0 0 -0.11,0.08 c 0,0 24.28,21.15 23.39,30.31"
        id="path2"
        style="fill:url(#a)" />
    <use
        xlink:href="#b"
        fill="#f60d1a"
        transform="rotate(180,44.5,85.1925)"
        id="use2" />
    <use
        xlink:href="#b"
        fill="#96060c"
        transform="rotate(90,44.6075,84.6925)"
        id="use3" />
    <use
        xlink:href="#b"
        fill="#96060c"
        transform="rotate(-90,44.3925,85.6925)"
        id="use4" />
    <use
        xlink:href="#b"
        fill="#f60d1a"
        id="use5"
        transform="translate(-1,-0.215)" />
</svg>